<svg xmlns="http://www.w3.org/2000/svg" viewBox="0 0 244.27 233.42"><defs><style>.cls-1{fill:#ffbc01;}</style></defs><g id="Layer_2" data-name="Layer 2"><g id="Layer_1-2" data-name="Layer 1"><g id="Layer_2-2" data-name="Layer 2"><g id="Layer_1-2-2" data-name="Layer 1-2"><path class="cls-1" d="M142.51,194.67c1.9-2.7,5.18-4.19,10.3-5.19a8,8,0,0,1,6.79,1.75c3,2.69,4.75,7.25,5.86,10.4a8,8,0,0,1,.32,4.35c-1.3,6.29-4.7,12.63-13.35,9.06a7.89,7.89,0,0,0-1.35-.44c-5.42-1.14-7.08-7.57-9.13-12A8,8,0,0,1,142.51,194.67Z"/><path class="cls-1" d="M159.87,221.42a16,16,0,0,0,2.09-1,4.49,4.49,0,0,1,3.8-.36c3.47,1.31,7.36,4.31,4.74,6.62a4.56,4.56,0,0,0-1.29,2.31c-.71,2.9-2.44,4.64-7.62,4.41-2.46-.33-3.27-4-4.16-6.24A4.46,4.46,0,0,1,159.87,221.42Z"/><path class="cls-1" d="M227.92,156.75a5.46,5.46,0,0,0,.2-.91c.41-3.71-.11-7.38,7.87-5.58,3,.4,4,3.66,5.06,6.08a7.67,7.67,0,0,1,.4,4.93c-.84,3.3-2.57,6.55-6.19,3.92A7.89,7.89,0,0,0,233,164C229.75,163,227.07,159.84,227.92,156.75Z"/><path class="cls-1" d="M219.94,52.05c.48-3.61,4-9.91,7.26-6.81a4.29,4.29,0,0,0,1.59,1c2.64.86,3.94,3.66,4.71,6.24a4.58,4.58,0,0,1-.24,3.41c-1.64,3.23-5.78,6-7.28,4.1C222.13,59.42,218.31,54,219.94,52.05Z"/><path class="cls-1" d="M32.72,27c.76-2.62,5.2-4,7.07-4.88a5.16,5.16,0,0,1,3-.42c3.54.62,7.45,2,4.42,6.66a5.41,5.41,0,0,0-.82,2.11c-.3,2.17-.62,1.55-6.34,4.19a4.84,4.84,0,0,1-3.18.33c-3.36-.85-6.75-3-4.54-7.09A4.53,4.53,0,0,0,32.72,27Z"/><path class="cls-1" d="M.19,126.66c.52-3.86,6.33-6.31,7.92-6,3.11.42,2.43,4.3,4.22,6.6a3.19,3.19,0,0,1-.61,4.46,3.3,3.3,0,0,1-.57.34c-1.33.66-2.86,1.13-4,1.84a3.1,3.1,0,0,1-2.44.44C1.59,133.49-.69,131.44.19,126.66Z"/><path class="cls-1" d="M47.62,210.38c.4-3,3.69-4.64,6.12-5.49a4.13,4.13,0,0,1,4.56,1.25,18.8,18.8,0,0,1,2.51,4.59,4.12,4.12,0,0,1-2.07,5.33c-1,.47-2.31.93-4,1.71a4.15,4.15,0,0,1-2.38.35C49,217.58,45.87,216.47,47.62,210.38Z"/><path class="cls-1" d="M85.56.17c3.55-1,6.24,2.48,8.91,6.71,1.37,4.73-1,9.65-4,10.43-3.55,1-5.11-5.57-8.91-6.71C80.23,5.87,84.09,3.34,85.56.17Z"/><path class="cls-1" d="M10.22,75.05c.62-1.85,1.35-.3,9.38-3.07a2.26,2.26,0,0,1,1.21,0c4,1.06,4.38,1.9,6.26,7.91a2.08,2.08,0,0,1,0,1.21c-.86,3-2.28,3.59-9.77,3.72a1.85,1.85,0,0,1-.62-.07C12.53,83.47,8.5,77,9.35,76.2A2.76,2.76,0,0,0,10.22,75.05Z"/><path class="cls-1" d="M226.43,103.3c.44-1.65,2.19-2.73,8.28-4a5.14,5.14,0,0,1,.55-.06c4.79-.18,8.39.51,8.93,6.31.15,3.62.91,11.07-8,7.33a3.81,3.81,0,0,0-1.11-.25c-3.73-.19-4.11-4.19-7-5.75A3.22,3.22,0,0,1,226.43,103.3Z"/><path class="cls-1" d="M195.17,187.32c2.61-2.62,6.12-4.53,11.05,1.55,3.14,3.12,7.82,9,3.42,10.65a16.46,16.46,0,0,0-3.31,1.64c-2.21,1.45-4.82,1.19-9.56-2.8C193.28,194.89,197.08,185.45,195.17,187.32Z"/><path class="cls-1" d="M32.87,166.64a5.24,5.24,0,0,0,0,2.55A7.65,7.65,0,0,1,27.66,178c-4,2.14-12,3.28-11.35-.66a6.47,6.47,0,0,0,0-2.06c-.56-3.3,2.24-9.39,4.2-9.53a8.9,8.9,0,0,0,2.93-.55C27.87,163.35,34.09,162.05,32.87,166.64Z"/><path class="cls-1" d="M112.49,216.33c2.82,1.73,5.25,5.48,3.48,8.3a4.7,4.7,0,0,0-.52,1.17c-.89,3.21-4.82,3.58-6.7,5.3a4.31,4.31,0,0,1-4.86.77c-2.92-1.46-5.3-4.11-2.31-7.71a4.71,4.71,0,0,0,.93-1.77c.87-3.16,3.71-5.1,5.83-6.17A4.28,4.28,0,0,1,112.49,216.33Z"/><path class="cls-1" d="M192.57,15.05c3.11,1.88,8.17,2.57,1.5,10.63a9.46,9.46,0,0,0-.72,1c-1.9,2.78-4.35,3.46-7.13,3.62A9.15,9.15,0,0,1,180.87,29c-2.26-1.42-3.53-3.43,1.31-9.75C184.77,15,191.71,14.53,192.57,15.05Z"/><path class="cls-1" d="M197.34,147.19c.9-6.67,6-10.57,13.21-11a8.15,8.15,0,0,1,2.95.33c6.17,1.92,13,9.66,10.41,13.26a9.83,9.83,0,0,0-1.37,2.75c-1.58,5-6.52,7.07-12.11,8.67a7.94,7.94,0,0,1-4.48,0C200.2,159.45,196.36,154.52,197.34,147.19Z"/><path class="cls-1" d="M19.87,118.25c2.44-3.35,6.8-5.27,10.64-6.18a8.77,8.77,0,0,1,4.63.19c6.1,2,12.44,7.68,9.29,12.88a8.82,8.82,0,0,0-1,2.24c-1.67,6.22-9.61,13.1-13.33,10.82a10.52,10.52,0,0,0-3-1.29c-5-1.18-6.69-4.17-8.54-11.84A8.32,8.32,0,0,1,19.87,118.25Z"/><path class="cls-1" d="M46.06,45.23c.84-6.3,7.06-7,12.54-9.9A6.39,6.39,0,0,1,63.87,35c4.62,1.76,6.93,5.93,7.72,12.89a6.43,6.43,0,0,1,0,1.64c-1.1,6.75-4.81,15-13.61,10.68a6.19,6.19,0,0,0-1.74-.55C49.53,58.59,43.87,56.16,46.06,45.23Z"/><path class="cls-1" d="M191.12,64.05C192.24,58.31,197.68,55.1,203,54a9.67,9.67,0,0,1,5.43.4c5.65,2.2,9.73,8.21,8.15,13.75-.78,5.81-6.79,6.81-11.62,9.24a10,10,0,0,1-8.13.54c-4.83-1.89-8.39-5.73-6.08-12.59A9.11,9.11,0,0,0,191.12,64.05Z"/><path class="cls-1" d="M123.36,20.68c1-7.07,2.42-9.5,14.52-11.09,7.07.95,10.42,5.19,11.09,14.52-.95,7.07-5.25,9-14.52,11.09C127.38,34.25,127.29,24.65,123.36,20.68Z"/><path class="cls-1" d="M59.87,186.92c1.25-4.23,4.12-5.49,12.38-7.7a5.51,5.51,0,0,1,4.15.48c3.87,2.26,5.21,8,7.11,11.61a5.66,5.66,0,0,1-1.38,7c-2.55,2.13-6.38,3.15-9.6,4.83a5.56,5.56,0,0,1-6.77-1.24c-2.43-2.83-3.44-7.35-5.33-10.42A5.62,5.62,0,0,1,59.87,186.92Z"/><path class="cls-1" d="M37.21,101.29c1.43,2,4.72,6.27,7.69,7.58A8.76,8.76,0,0,1,49,112.44c3.94,6.88,3,17.71.27,21a9.23,9.23,0,0,0-1,1.41c-1.2,2.26-4.51,8.17-6.79,9.55a7.55,7.55,0,0,0-2.64,2.8c-7.33,12.92.65,30.41,18.45,26.88a7.68,7.68,0,0,0,1.32-.39c2.27-.88,10.13-3.79,12.21-2.81a8.78,8.78,0,0,0,3.28.6c7.57,0,12.81,5.34,17.44,13a8,8,0,0,1,.83,1.9c.76,2.56,2.72,9.3,2.93,11.63a6.55,6.55,0,0,0,.25,1.32c4.49,15.24,25.67,18.71,33.29,4.13a8.77,8.77,0,0,1,.49-.84c1.09-1.61,5.19-7.72,6.13-10.56a8.69,8.69,0,0,1,1-2.22c4.89-7,15.12-10.29,21.72-6.94a8.63,8.63,0,0,0,2.41.84c2.73.49,8.71,1.79,10.47,3.84a8.84,8.84,0,0,0,6.64,3c13,.23,25.34-15.46,18.81-24.42a6.22,6.22,0,0,1-.74-1.21,117.37,117.37,0,0,1-4.73-11.9c-3.16-7.74,2.44-13.23,6.89-20.19a8.41,8.41,0,0,1,5.27-3.66c2.69-.59,6.21-1.7,7.79-3.66a16.36,16.36,0,0,1,3.52-3.43c12.31-8.18,13.44-24.56-5.61-32.25l-.39-.17c-1.3-.61-9-4.21-11.83-4.07a9,9,0,0,1-4.6-1.11c-6.54-3.41-10.92-10.25-9.65-17.66a8.24,8.24,0,0,1,1.41-3.32c1.62-2.28,4.71-7.31,3-10.6a7.9,7.9,0,0,1-.82-4.09c1-14.43-15.1-23.38-28-16.49a7.81,7.81,0,0,0-1.41,1c-2,1.77-8.33,7.13-10,7.5a7.1,7.1,0,0,0-2,.7c-7,4-14.63,3-21.7-3.07a8.17,8.17,0,0,1-2-2.63c-1.39-2.78-4.6-8.79-6.69-9.48a10.11,10.11,0,0,1-3.43-1.7C99.74,15.59,79.64,25,80.61,36.73a10.59,10.59,0,0,1,0,1.38c-.2,3.2-1,16.33-.78,12.79-.54,9-9.61,12.55-16.6,16.43a8.19,8.19,0,0,1-3,1c-3.17.38-9.85,1.11-11.61.67a8.58,8.58,0,0,0-4.33,0c-13.14,3.67-18.1,23.21-8.7,30.66A8.62,8.62,0,0,1,37.21,101.29Zm95.66-43.24c31.46,4.54,49.5,33.4,49.65,65a9.5,9.5,0,0,1-.09,1.31c-4.61,31.57-35.69,58.16-65.17,49.72-.33-.09-.66-.16-1-.22-31.58-4.52-51.17-33.26-49.72-65.25a3.43,3.43,0,0,1,.08-.9c4.49-31.56,34.18-50.27,65.14-49.79C132.13,58,132.5,58,132.87,58.05Z"/><path class="cls-1" d="M117.87,161.54c25.06,3.22,44.84-11.85,51.61-39.35a5.27,5.27,0,0,0,.15-.81c3.16-25-12.33-43.58-39.25-51.45a7.24,7.24,0,0,0-1-.22c-25.11-3.14-47.24,10.58-51.48,39.78-3.38,25.25,9.68,45.71,39.43,52A4,4,0,0,0,117.87,161.54Zm7.43-78.4c17.33,2.44,26.39,20.65,27.56,35.66a6.12,6.12,0,0,1-.05,1.42c-2.64,17.32-16.56,33.53-35.82,27.24a6.9,6.9,0,0,0-1-.23c-17.44-2.69-28.79-22.8-27.29-36.33,2.34-17.67,14-32.85,36.17-27.85Z"/><path class="cls-1" d="M118.46,140.73c12.67,1.7,20.68-7.53,26-19.87,1.7-12.66-9-28.74-19.86-26-12.67-1.7-23.45,8.68-26,19.86C96.87,127.38,104,139.78,118.46,140.73Zm4.72-40.23c7.64,1,9.37,7.71,12,15.69-1,7.64-9.89,8.58-15.69,12-7.64-1-12.13-6.56-12-15.69C108.51,104.84,113.78,100.23,123.18,100.5Z"/><path class="cls-1" d="M114.67,111.31c.59-4.43,9.24-7.52,9.1-7,4.43.59,8.6,5.93,7,9.1-.59,4.43-3.16,6.16-9.1,7A8.15,8.15,0,0,1,114.67,111.31Z"/></g></g></g></g></svg>